<svg id="1505c554-5c38-4a77-999f-b8b9c5ae0b21" data-name="Слой 1" xmlns="http://www.w3.org/2000/svg" viewBox="0 0 716.9196 682.3234">
  <title>Poop_emoji</title>
  <g>
    <path d="M695.21388,255.0638c2.608-8.89,7.4076-30.9378-2.1652-49.35-5.69168-10.9495-15.4232-18.6842-28.9653-23.0356.18062-2.0243.2908-4.727.3458-8.4022l.0045-.337c.1255-5.3283-.0529-12.2788-2.5552-18.7911-2.804-7.2952-8.30848-13.6114-15.9209-18.2646a49.31167,49.31167,0,0,0-10.7535-4.8911c-.7886-.2511-2.9186-.674-9.8769-1.957-2.456-12.5994-5.478-25.4696-10.3658-36.0139a105.0106,105.0106,0,0,0-34.2539-41.3829c-4.152-2.9571-40.96549-28.4939-54.6309-14.7811-2.9979,3.01-4.07059,7.7458-2.9428,12.9937.293,1.37.6146,2.7214.9317,4.0562,1.7886,7.5288,3.2027,13.476-.9978,19.497-1.0749,1.5408-2.2709,2.9406-3.53969,4.4219-3.108,3.6344-6.63,7.7535-7.75121,13.9705-1.0947,6.0563-.4405,12.6754.3811,18.4937-7.8592,3.2986-26.4785,12.7822-35.52489,31.5215-5.98471,12.3934-6.62571,26.3915-1.92511,41.6726-6.8548,2.3645-19.3374,8.216-27.6283,21.1853-7.91859,12.3901-10.0178,28.0435-6.2534,46.5791-2.2754,1.1266-5.4957,2.9207-10.2116,5.717-3.8327,2.2732-12.2007,7.3691-13.595,8.6136a49.23107,49.23107,0,0,0,8.7733,80.0917c23.44311,12.9066,52.5626,6.9748,78.2525,1.7434,6.8459-1.3943,13.3108-2.7104,19.41661-3.6311,5.14549-.7709,11.23589.5188,17.12589,1.7688,2.6476.5606,5.3833,1.1421,8.0089,1.5264a613.28636,613.28636,0,0,0,68.3779,6.2083c3.6454.12,7.3327.2863,11.0442.4549,7.3438.3315,14.7778.6674,22.2185.6674,12.7579,0,25.5268-.989,37.8487-4.684,20.8285-6.2457,43.8862-23.539,45.2981-46.7476C734.56478,284.5863,721.72758,268.1433,695.21388,255.0638ZM454.62159,210.6236c9.5486-15.0333,26.593-18.6556,26.7516-18.6887a4.51142,4.51142,0,0,0,3.3547-5.9946c-5.4407-14.661-5.4407-27.832.0022-39.1482,9.17691-19.0828,31.1156-27.3386,33.5831-28.2164a36.69706,36.69706,0,0,0,6.2061.4516c9.46271,0,24.0599-2.325,35.6306-8.6709a2.25544,2.25544,0,1,0-2.1675-3.956c-12.9369,7.0965-28.974,8.5233-36.3392,8.0908a4.48452,4.48452,0,0,0-.0314-.9651c-.945-6.2138-2.0177-13.258-.9582-19.1281.68941-3.8118,2.9141-6.4131,5.73141-9.7072a65.06232,65.06232,0,0,0,4.08369-5.1246c6.5112-9.3383,4.3129-18.5862,2.3745-26.7449-.3039-1.2721-.6101-2.5585-.8898-3.8625-.4516-2.1079-.2489-3.967.5154-4.7346,5.3613-5.3812,28.6613,5.5507,43.0051,15.7646a95.97219,95.97219,0,0,1,31.3024,37.8266c4.508,9.722,7.3583,21.9748,9.7033,34.0123-8.6097,7.8954-36.96758,31.6413-79.0195,44.3129l.0815.2715c-5.9798-6.0988-13.4251-9.7662-21.518-9.7662-19.5885,0-35.5249,21.2482-35.5249,47.3665,0,16.1548,6.1058,30.4303,15.3929,38.9832-18.747,1.6399-35.9759,2.1224-45.2962,2.2616a4.474,4.474,0,0,0-.11039-1.145V254.11l-.00441-.0154C446.17649,236.3498,447.57079,221.7251,454.62159,210.6236Zm30.3882,3.3888c0-23.6304,13.9121-42.8554,31.0138-42.8554s31.0137,19.225,31.0137,42.8554-13.9121,42.8554-31.0137,42.8554S485.00979,237.6428,485.00979,214.0124Zm-75.4749,93.6261A41.16811,41.16811,0,0,1,422.914,273.4066c2.12019-1.6447,18.37659-11.5408,22.97709-13.5904,7.4893-.0412,30.5894-.3739,55.3522-2.7867a28.10926,28.10926,0,0,0,14.7803,4.3494c8.73,0,16.7222-4.2387,22.9139-11.2296,13.8642-3.7612,32.9293-10.4893,48.5276-21.6778,4.5961,19.0648,18.0121,32.9074,33.818,32.9074,19.5885,0,35.52492-21.2482,35.52492-47.3665s-15.93642-47.3665-35.52492-47.3665-35.5248,21.2482-35.5248,47.3665a62.66505,62.66505,0,0,0,.7348,9.5952c-13.3623,10.0452-29.8257,16.5502-43.1037,20.5709a57.43555,57.43555,0,0,0,8.159-30.1661c0-13.4072-4.2181-25.5047-10.955-34.1299a217.9317,217.9317,0,0,0,77.2544-43.2184c1.0286,1.3423,2.8951,1.7001,5.6865,2.2148,2.4339.4494,8.1345,1.5001,8.9318,1.7104a40.267,40.267,0,0,1,8.7843,3.9913c5.8173,3.5562,10.1522,8.4583,12.2051,13.8031,1.9251,5.0089,2.07052,10.5673,1.9604,15.3483l-.0088.4064a79.21531,79.21531,0,0,1-.4758,9.184,4.51478,4.51478,0,0,0,2.641,6.868h.0044c13.1698,3.3646,22.4057,9.9737,27.4476,19.6468,10.1962,19.5543.5551,45.7398.4582,45.9975-.04548.1198-.0644.2423-.0991.3633-34.7176,54.9707-170.0641,81.2362-216.92789,88.8138-13.7238,1.0623-27.05-.045-38.3101-6.2439A40.76371,40.76371,0,0,1,409.53489,307.6385Zm180.7345-93.6261c0-23.6304,13.9121-42.8554,31.0137-42.8554s31.0138,19.225,31.0138,42.8554-13.9122,42.8554-31.0138,42.8554S590.26939,237.6428,590.26939,214.0124Zm134.1102,89.4168c-1.0991,18.051-20.3924,33.1085-38.8839,38.6548-18.0378,5.4087-37.8751,4.5133-57.0693,3.6444-3.749-.1696-7.4715-.3381-11.1566-.4593a603.90412,603.90412,0,0,1-67.3646-6.1179c-2.3414-.3425-4.8217-.869-7.4451-1.4252-2.34309-.4969-4.7159-.9883-7.0986-1.3879,56.575-13.7306,125.8816-37.5044,152.0478-75.0446a4.40636,4.40636,0,0,0,.4036.2352C713.06008,273.1632,725.36418,287.2615,724.37958,303.4292ZM516.21129,238.8237c-9.3426,0-16.9166-10.8558-16.9166-24.2471s7.574-24.2472,16.9166-24.2472,16.9166,10.8558,16.9166,24.2472S525.554,238.8237,516.21129,238.8237Zm88.3424-24.2471c0-13.3914,7.5737-24.2472,16.9166-24.2472,9.34272,0,16.9166,10.8558,16.9166,24.2472s-7.57388,24.2471-16.9166,24.2471C612.12738,238.8237,604.55368,227.9679,604.55368,214.5766Zm-52.1066,97.1765a62.67919,62.67919,0,0,0,7.7446,1.054q2.35905.17175,4.7226.1707c24.0136,0,47.6506-13.1269,58.664-33.0336,1.6498-2.9824,1.8282-6.0188.4934-8.3317-1.4251-2.4659-4.4384-3.8172-8.0001-3.6377-2.3679.1223-4.74458.4494-7.042.7665-1.5881.2181-3.1741.4373-4.7512.5871-27.8793,2.641-57.3402,2.2808-90.0809-1.0992a11.60564,11.60564,0,0,0-4.4604.1652,7.18416,7.18416,0,0,0-4.8833,5.042c-.6697,2.6178.17621,5.6003,2.3789,8.3999C519.98619,298.0315,535.62079,308.3764,552.44709,311.7531Zm-43.2232-37.1967a2.6714,2.6714,0,0,1,1.7599-1.8271,7.99728,7.99728,0,0,1,2.7534-.0132c33.0314,3.4075,62.7874,3.7688,90.9663,1.1035,1.6388-.1553,3.2886-.3821,4.9406-.6101,2.3063-.3172,4.4847-.6179,6.661-.7302,1.3898-.0595,3.2027.2511,3.8591,1.3888.6101,1.0562.1255,2.7038-.5331,3.8932-10.7425,19.4112-35.6174,32.255-59.1134,30.5457a58.08932,58.08932,0,0,1-7.1851-.9769c-19.9101-3.9956-34.13059-17.5862-42.5558-28.2846C510.16439,278.2668,508.78549,276.2701,509.22389,274.5564Z" transform="translate(-16.54021 -33.8383)" style="fill: #010101"/>
  </g>
</svg>
